<svg xmlns="http://www.w3.org/2000/svg" width="512" height="512" viewBox="0 0 512 512" version="1.1"><path d="M 447.500 358.657 C 446.400 358.891, 442.009 359.753, 437.742 360.573 C 424.649 363.090, 408.512 371.237, 402.056 378.589 C 396.986 384.364, 398.251 392.467, 404.700 395.528 C 407.896 397.044, 409.070 397.014, 422.441 395.076 C 436.202 393.081, 458.755 392.292, 463.750 393.630 C 465.585 394.122, 466 394.937, 466 398.049 C 466 403.453, 460.912 422.338, 455.556 436.813 C 453.050 443.586, 451 450.156, 451 451.414 C 451 458.195, 456.404 464, 462.718 464 C 471.027 464, 486.396 445.490, 495.059 425.051 C 500.246 412.812, 503.135 399.943, 503.727 386.433 C 504.195 375.747, 504.022 373.839, 502.212 369.747 C 499.719 364.110, 495.228 361.521, 484.325 359.435 C 477.402 358.111, 452.544 357.585, 447.500 358.657 M 16.479 377.448 C 11.541 378.833, 8 383.705, 8 389.113 C 8 394.188, 10.654 397.104, 29.977 413.259 C 66.787 444.036, 93.851 462.293, 125 477.362 C 166.696 497.534, 200.259 504.854, 245.834 503.717 C 278.871 502.892, 308.751 497.583, 342.500 486.539 C 370.551 477.359, 391.169 467.975, 416.500 452.858 C 442.119 437.568, 447.518 432.057, 447.435 421.278 C 447.403 416.999, 446.853 415.386, 444.390 412.343 C 436.370 402.435, 431.222 402.085, 414.609 410.317 C 374.493 430.194, 333.645 442.328, 285.500 448.670 C 266.840 451.128, 223.049 451.122, 206.500 448.660 C 170.932 443.368, 144.106 435.147, 114.500 420.466 C 107.350 416.920, 95.902 411.726, 89.060 408.924 C 76.153 403.636, 58.344 395.043, 54 392.005 C 48.900 388.439, 27.380 377.724, 23.956 377.046 C 22.007 376.660, 18.642 376.841, 16.479 377.448" stroke="none" fill="#f28810" fill-rule="evenodd"/><path d="M 216.500 9.516 C 169.108 17.065, 136.162 37.708, 118.725 70.779 C 112.905 81.819, 108.044 96.445, 107.295 105.170 C 106.754 111.487, 106.867 111.972, 109.441 114.357 C 112.875 117.541, 111.817 117.334, 147.769 121.842 C 174.375 125.178, 178.381 125.472, 180.863 124.270 C 184.242 122.633, 187.163 117.639, 189.475 109.543 C 196.825 83.808, 218.658 69.269, 244.466 72.924 C 259.560 75.061, 272.841 85.577, 277.109 98.770 C 278.959 104.486, 279.357 108.527, 279.755 125.600 L 280.224 145.701 264.362 146.935 C 204.471 151.595, 168.692 161.085, 140.829 179.703 C 132.530 185.248, 121.555 195.962, 115.540 204.391 C 109.153 213.342, 102.357 228.180, 99.359 239.723 C 95.901 253.030, 94.994 277.047, 97.422 290.961 C 101.363 313.549, 108.770 328.770, 122.500 342.500 C 135.869 355.869, 150.929 363.511, 171 367.111 C 188.238 370.204, 222.278 367.621, 239.212 361.936 C 254.325 356.862, 270.582 346.254, 285.954 331.436 L 294.644 323.058 301.072 332.182 C 308.553 342.800, 314.879 350.065, 324.141 358.673 C 331.754 365.747, 336.838 367.370, 343.074 364.715 C 348.766 362.292, 394.621 322.442, 396.881 317.954 C 398.954 313.839, 397.541 308.870, 392.427 302.287 C 378.227 284.011, 373.879 276.466, 370.327 263.942 C 368.629 257.954, 368.495 251.795, 368.425 176.500 C 368.359 105.694, 368.142 94.350, 366.695 86.365 C 364.822 76.026, 361.030 64.651, 357.240 58 C 344.291 35.276, 317.803 18.724, 281.724 10.810 C 269.413 8.110, 230.210 7.332, 216.500 9.516 M 252.373 198.091 C 220.131 201.852, 199.781 215.013, 192.039 237.112 C 188.904 246.058, 188.059 265.780, 190.415 275 C 193.783 288.180, 200.159 296.966, 209.786 301.694 C 214.951 304.230, 216.514 304.500, 226.053 304.500 C 236.247 304.500, 236.866 304.371, 244.253 300.720 C 254.036 295.884, 261.987 288.004, 268.269 276.917 C 277.576 260.492, 279.953 248.082, 279.983 215.750 L 280 197 269.750 197.130 C 264.113 197.201, 256.293 197.634, 252.373 198.091" stroke="none" fill="#333349" fill-rule="evenodd"/></svg>